<?xml version="1.0" encoding="utf-8" standalone="no"?>
<!DOCTYPE svg PUBLIC "-//W3C//DTD SVG 1.1//EN"
  "http://www.w3.org/Graphics/SVG/1.1/DTD/svg11.dtd">
<svg xmlns:xlink="http://www.w3.org/1999/xlink" width="432pt" height="288pt" viewBox="0 0 432 288" xmlns="http://www.w3.org/2000/svg" version="1.1">
 <metadata>
  <rdf:RDF xmlns:dc="http://purl.org/dc/elements/1.1/" xmlns:cc="http://creativecommons.org/ns#" xmlns:rdf="http://www.w3.org/1999/02/22-rdf-syntax-ns#">
   <cc:Work>
    <dc:type rdf:resource="http://purl.org/dc/dcmitype/StillImage"/>
    <dc:date>2025-06-29T11:51:12.932826</dc:date>
    <dc:format>image/svg+xml</dc:format>
    <dc:creator>
     <cc:Agent>
      <dc:title>Matplotlib v3.10.3, https://matplotlib.org/</dc:title>
     </cc:Agent>
    </dc:creator>
   </cc:Work>
  </rdf:RDF>
 </metadata>
 <defs>
  <style type="text/css">*{stroke-linejoin: round; stroke-linecap: butt}</style>
 </defs>
 <g id="figure_1">
  <g id="patch_1">
   <path d="M 0 288 
L 432 288 
L 432 0 
L 0 0 
z
" style="fill: #ffffff"/>
  </g>
  <g id="axes_1">
   <g id="patch_2">
    <path d="M 67.592 223.806724 
L 421.2 223.806724 
L 421.2 26.88 
L 67.592 26.88 
z
" style="fill: #ffffff"/>
   </g>
   <g id="patch_3">
    <path d="M 83.665091 223.806724 
L 107.477077 223.806724 
L 107.477077 36.257463 
L 83.665091 36.257463 
z
" clip-path="url(#p47e4899e32)" style="fill: #008080"/>
   </g>
   <g id="patch_4">
    <path d="M 113.430074 223.806724 
L 137.242061 223.806724 
L 137.242061 37.810474 
L 113.430074 37.810474 
z
" clip-path="url(#p47e4899e32)" style="fill: #008080"/>
   </g>
   <g id="patch_5">
    <path d="M 143.195057 223.806724 
L 167.007044 223.806724 
L 167.007044 38.211791 
L 143.195057 38.211791 
z
" clip-path="url(#p47e4899e32)" style="fill: #008080"/>
   </g>
   <g id="patch_6">
    <path d="M 172.96004 223.806724 
L 196.772027 223.806724 
L 196.772027 38.749504 
L 172.96004 38.749504 
z
" clip-path="url(#p47e4899e32)" style="fill: #008080"/>
   </g>
   <g id="patch_7">
    <path d="M 202.725024 223.806724 
L 226.53701 223.806724 
L 226.53701 39.172927 
L 202.725024 39.172927 
z
" clip-path="url(#p47e4899e32)" style="fill: #008080"/>
   </g>
   <g id="patch_8">
    <path d="M 232.490007 223.806724 
L 256.301993 223.806724 
L 256.301993 46.585246 
L 232.490007 46.585246 
z
" clip-path="url(#p47e4899e32)" style="fill: #008080"/>
   </g>
   <g id="patch_9">
    <path d="M 262.25499 223.806724 
L 286.066976 223.806724 
L 286.066976 47.527146 
L 262.25499 47.527146 
z
" clip-path="url(#p47e4899e32)" style="fill: #008080"/>
   </g>
   <g id="patch_10">
    <path d="M 292.019973 223.806724 
L 315.83196 223.806724 
L 315.83196 47.644333 
L 292.019973 47.644333 
z
" clip-path="url(#p47e4899e32)" style="fill: #008080"/>
   </g>
   <g id="patch_11">
    <path d="M 321.784956 223.806724 
L 345.596943 223.806724 
L 345.596943 48.035506 
L 321.784956 48.035506 
z
" clip-path="url(#p47e4899e32)" style="fill: #008080"/>
   </g>
   <g id="patch_12">
    <path d="M 351.549939 223.806724 
L 375.361926 223.806724 
L 375.361926 49.144633 
L 351.549939 49.144633 
z
" clip-path="url(#p47e4899e32)" style="fill: #008080"/>
   </g>
   <g id="patch_13">
    <path d="M 381.314923 223.806724 
L 405.126909 223.806724 
L 405.126909 51.377671 
L 381.314923 51.377671 
z
" clip-path="url(#p47e4899e32)" style="fill: #008080"/>
   </g>
   <g id="matplotlib.axis_1">
    <g id="xtick_1">
     <g id="line2d_1">
      <defs>
       <path id="mcf0732c7d9" d="M 0 0 
L 0 3.5 
" style="stroke: #000000; stroke-width: 0.8"/>
      </defs>
      <g>
       <use xlink:href="#mcf0732c7d9" x="95.571084" y="223.806724" style="stroke: #000000; stroke-width: 0.8"/>
      </g>
     </g>
     <g id="text_1">
      <!-- 4_CHL_601 -->
      <g transform="translate(54.641755 275.316886) rotate(-45) scale(0.1 -0.1)">
       <defs>
        <path id="DejaVuSans-34" d="M 2419 4116 
L 825 1625 
L 2419 1625 
L 2419 4116 
z
M 2253 4666 
L 3047 4666 
L 3047 1625 
L 3713 1625 
L 3713 1100 
L 3047 1100 
L 3047 0 
L 2419 0 
L 2419 1100 
L 313 1100 
L 313 1709 
L 2253 4666 
z
" transform="scale(0.015625)"/>
        <path id="DejaVuSans-5f" d="M 3263 -1063 
L 3263 -1509 
L -63 -1509 
L -63 -1063 
L 3263 -1063 
z
" transform="scale(0.015625)"/>
        <path id="DejaVuSans-43" d="M 4122 4306 
L 4122 3641 
Q 3803 3938 3442 4084 
Q 3081 4231 2675 4231 
Q 1875 4231 1450 3742 
Q 1025 3253 1025 2328 
Q 1025 1406 1450 917 
Q 1875 428 2675 428 
Q 3081 428 3442 575 
Q 3803 722 4122 1019 
L 4122 359 
Q 3791 134 3420 21 
Q 3050 -91 2638 -91 
Q 1578 -91 968 557 
Q 359 1206 359 2328 
Q 359 3453 968 4101 
Q 1578 4750 2638 4750 
Q 3056 4750 3426 4639 
Q 3797 4528 4122 4306 
z
" transform="scale(0.015625)"/>
        <path id="DejaVuSans-48" d="M 628 4666 
L 1259 4666 
L 1259 2753 
L 3553 2753 
L 3553 4666 
L 4184 4666 
L 4184 0 
L 3553 0 
L 3553 2222 
L 1259 2222 
L 1259 0 
L 628 0 
L 628 4666 
z
" transform="scale(0.015625)"/>
        <path id="DejaVuSans-4c" d="M 628 4666 
L 1259 4666 
L 1259 531 
L 3531 531 
L 3531 0 
L 628 0 
L 628 4666 
z
" transform="scale(0.015625)"/>
        <path id="DejaVuSans-36" d="M 2113 2584 
Q 1688 2584 1439 2293 
Q 1191 2003 1191 1497 
Q 1191 994 1439 701 
Q 1688 409 2113 409 
Q 2538 409 2786 701 
Q 3034 994 3034 1497 
Q 3034 2003 2786 2293 
Q 2538 2584 2113 2584 
z
M 3366 4563 
L 3366 3988 
Q 3128 4100 2886 4159 
Q 2644 4219 2406 4219 
Q 1781 4219 1451 3797 
Q 1122 3375 1075 2522 
Q 1259 2794 1537 2939 
Q 1816 3084 2150 3084 
Q 2853 3084 3261 2657 
Q 3669 2231 3669 1497 
Q 3669 778 3244 343 
Q 2819 -91 2113 -91 
Q 1303 -91 875 529 
Q 447 1150 447 2328 
Q 447 3434 972 4092 
Q 1497 4750 2381 4750 
Q 2619 4750 2861 4703 
Q 3103 4656 3366 4563 
z
" transform="scale(0.015625)"/>
        <path id="DejaVuSans-30" d="M 2034 4250 
Q 1547 4250 1301 3770 
Q 1056 3291 1056 2328 
Q 1056 1369 1301 889 
Q 1547 409 2034 409 
Q 2525 409 2770 889 
Q 3016 1369 3016 2328 
Q 3016 3291 2770 3770 
Q 2525 4250 2034 4250 
z
M 2034 4750 
Q 2819 4750 3233 4129 
Q 3647 3509 3647 2328 
Q 3647 1150 3233 529 
Q 2819 -91 2034 -91 
Q 1250 -91 836 529 
Q 422 1150 422 2328 
Q 422 3509 836 4129 
Q 1250 4750 2034 4750 
z
" transform="scale(0.015625)"/>
        <path id="DejaVuSans-31" d="M 794 531 
L 1825 531 
L 1825 4091 
L 703 3866 
L 703 4441 
L 1819 4666 
L 2450 4666 
L 2450 531 
L 3481 531 
L 3481 0 
L 794 0 
L 794 531 
z
" transform="scale(0.015625)"/>
       </defs>
       <use xlink:href="#DejaVuSans-34"/>
       <use xlink:href="#DejaVuSans-5f" transform="translate(63.623047 0)"/>
       <use xlink:href="#DejaVuSans-43" transform="translate(113.623047 0)"/>
       <use xlink:href="#DejaVuSans-48" transform="translate(183.447266 0)"/>
       <use xlink:href="#DejaVuSans-4c" transform="translate(258.642578 0)"/>
       <use xlink:href="#DejaVuSans-5f" transform="translate(314.355469 0)"/>
       <use xlink:href="#DejaVuSans-36" transform="translate(364.355469 0)"/>
       <use xlink:href="#DejaVuSans-30" transform="translate(427.978516 0)"/>
       <use xlink:href="#DejaVuSans-31" transform="translate(491.601562 0)"/>
      </g>
     </g>
    </g>
    <g id="xtick_2">
     <g id="line2d_2">
      <g>
       <use xlink:href="#mcf0732c7d9" x="125.336067" y="223.806724" style="stroke: #000000; stroke-width: 0.8"/>
      </g>
     </g>
     <g id="text_2">
      <!-- 4_CHL_607 -->
      <g transform="translate(84.406738 275.316886) rotate(-45) scale(0.1 -0.1)">
       <defs>
        <path id="DejaVuSans-37" d="M 525 4666 
L 3525 4666 
L 3525 4397 
L 1831 0 
L 1172 0 
L 2766 4134 
L 525 4134 
L 525 4666 
z
" transform="scale(0.015625)"/>
       </defs>
       <use xlink:href="#DejaVuSans-34"/>
       <use xlink:href="#DejaVuSans-5f" transform="translate(63.623047 0)"/>
       <use xlink:href="#DejaVuSans-43" transform="translate(113.623047 0)"/>
       <use xlink:href="#DejaVuSans-48" transform="translate(183.447266 0)"/>
       <use xlink:href="#DejaVuSans-4c" transform="translate(258.642578 0)"/>
       <use xlink:href="#DejaVuSans-5f" transform="translate(314.355469 0)"/>
       <use xlink:href="#DejaVuSans-36" transform="translate(364.355469 0)"/>
       <use xlink:href="#DejaVuSans-30" transform="translate(427.978516 0)"/>
       <use xlink:href="#DejaVuSans-37" transform="translate(491.601562 0)"/>
      </g>
     </g>
    </g>
    <g id="xtick_3">
     <g id="line2d_3">
      <g>
       <use xlink:href="#mcf0732c7d9" x="155.101051" y="223.806724" style="stroke: #000000; stroke-width: 0.8"/>
      </g>
     </g>
     <g id="text_3">
      <!-- 4_CHL_606 -->
      <g transform="translate(114.171721 275.316886) rotate(-45) scale(0.1 -0.1)">
       <use xlink:href="#DejaVuSans-34"/>
       <use xlink:href="#DejaVuSans-5f" transform="translate(63.623047 0)"/>
       <use xlink:href="#DejaVuSans-43" transform="translate(113.623047 0)"/>
       <use xlink:href="#DejaVuSans-48" transform="translate(183.447266 0)"/>
       <use xlink:href="#DejaVuSans-4c" transform="translate(258.642578 0)"/>
       <use xlink:href="#DejaVuSans-5f" transform="translate(314.355469 0)"/>
       <use xlink:href="#DejaVuSans-36" transform="translate(364.355469 0)"/>
       <use xlink:href="#DejaVuSans-30" transform="translate(427.978516 0)"/>
       <use xlink:href="#DejaVuSans-36" transform="translate(491.601562 0)"/>
      </g>
     </g>
    </g>
    <g id="xtick_4">
     <g id="line2d_4">
      <g>
       <use xlink:href="#mcf0732c7d9" x="184.866034" y="223.806724" style="stroke: #000000; stroke-width: 0.8"/>
      </g>
     </g>
     <g id="text_4">
      <!-- 4_CHL_609 -->
      <g transform="translate(143.936704 275.316886) rotate(-45) scale(0.1 -0.1)">
       <defs>
        <path id="DejaVuSans-39" d="M 703 97 
L 703 672 
Q 941 559 1184 500 
Q 1428 441 1663 441 
Q 2288 441 2617 861 
Q 2947 1281 2994 2138 
Q 2813 1869 2534 1725 
Q 2256 1581 1919 1581 
Q 1219 1581 811 2004 
Q 403 2428 403 3163 
Q 403 3881 828 4315 
Q 1253 4750 1959 4750 
Q 2769 4750 3195 4129 
Q 3622 3509 3622 2328 
Q 3622 1225 3098 567 
Q 2575 -91 1691 -91 
Q 1453 -91 1209 -44 
Q 966 3 703 97 
z
M 1959 2075 
Q 2384 2075 2632 2365 
Q 2881 2656 2881 3163 
Q 2881 3666 2632 3958 
Q 2384 4250 1959 4250 
Q 1534 4250 1286 3958 
Q 1038 3666 1038 3163 
Q 1038 2656 1286 2365 
Q 1534 2075 1959 2075 
z
" transform="scale(0.015625)"/>
       </defs>
       <use xlink:href="#DejaVuSans-34"/>
       <use xlink:href="#DejaVuSans-5f" transform="translate(63.623047 0)"/>
       <use xlink:href="#DejaVuSans-43" transform="translate(113.623047 0)"/>
       <use xlink:href="#DejaVuSans-48" transform="translate(183.447266 0)"/>
       <use xlink:href="#DejaVuSans-4c" transform="translate(258.642578 0)"/>
       <use xlink:href="#DejaVuSans-5f" transform="translate(314.355469 0)"/>
       <use xlink:href="#DejaVuSans-36" transform="translate(364.355469 0)"/>
       <use xlink:href="#DejaVuSans-30" transform="translate(427.978516 0)"/>
       <use xlink:href="#DejaVuSans-39" transform="translate(491.601562 0)"/>
      </g>
     </g>
    </g>
    <g id="xtick_5">
     <g id="line2d_5">
      <g>
       <use xlink:href="#mcf0732c7d9" x="214.631017" y="223.806724" style="stroke: #000000; stroke-width: 0.8"/>
      </g>
     </g>
     <g id="text_5">
      <!-- 4_CHL_608 -->
      <g transform="translate(173.701688 275.316886) rotate(-45) scale(0.1 -0.1)">
       <defs>
        <path id="DejaVuSans-38" d="M 2034 2216 
Q 1584 2216 1326 1975 
Q 1069 1734 1069 1313 
Q 1069 891 1326 650 
Q 1584 409 2034 409 
Q 2484 409 2743 651 
Q 3003 894 3003 1313 
Q 3003 1734 2745 1975 
Q 2488 2216 2034 2216 
z
M 1403 2484 
Q 997 2584 770 2862 
Q 544 3141 544 3541 
Q 544 4100 942 4425 
Q 1341 4750 2034 4750 
Q 2731 4750 3128 4425 
Q 3525 4100 3525 3541 
Q 3525 3141 3298 2862 
Q 3072 2584 2669 2484 
Q 3125 2378 3379 2068 
Q 3634 1759 3634 1313 
Q 3634 634 3220 271 
Q 2806 -91 2034 -91 
Q 1263 -91 848 271 
Q 434 634 434 1313 
Q 434 1759 690 2068 
Q 947 2378 1403 2484 
z
M 1172 3481 
Q 1172 3119 1398 2916 
Q 1625 2713 2034 2713 
Q 2441 2713 2670 2916 
Q 2900 3119 2900 3481 
Q 2900 3844 2670 4047 
Q 2441 4250 2034 4250 
Q 1625 4250 1398 4047 
Q 1172 3844 1172 3481 
z
" transform="scale(0.015625)"/>
       </defs>
       <use xlink:href="#DejaVuSans-34"/>
       <use xlink:href="#DejaVuSans-5f" transform="translate(63.623047 0)"/>
       <use xlink:href="#DejaVuSans-43" transform="translate(113.623047 0)"/>
       <use xlink:href="#DejaVuSans-48" transform="translate(183.447266 0)"/>
       <use xlink:href="#DejaVuSans-4c" transform="translate(258.642578 0)"/>
       <use xlink:href="#DejaVuSans-5f" transform="translate(314.355469 0)"/>
       <use xlink:href="#DejaVuSans-36" transform="translate(364.355469 0)"/>
       <use xlink:href="#DejaVuSans-30" transform="translate(427.978516 0)"/>
       <use xlink:href="#DejaVuSans-38" transform="translate(491.601562 0)"/>
      </g>
     </g>
    </g>
    <g id="xtick_6">
     <g id="line2d_6">
      <g>
       <use xlink:href="#mcf0732c7d9" x="244.396" y="223.806724" style="stroke: #000000; stroke-width: 0.8"/>
      </g>
     </g>
     <g id="text_6">
      <!-- 4_CLA_602 -->
      <g transform="translate(203.788183 274.995374) rotate(-45) scale(0.1 -0.1)">
       <defs>
        <path id="DejaVuSans-41" d="M 2188 4044 
L 1331 1722 
L 3047 1722 
L 2188 4044 
z
M 1831 4666 
L 2547 4666 
L 4325 0 
L 3669 0 
L 3244 1197 
L 1141 1197 
L 716 0 
L 50 0 
L 1831 4666 
z
" transform="scale(0.015625)"/>
        <path id="DejaVuSans-32" d="M 1228 531 
L 3431 531 
L 3431 0 
L 469 0 
L 469 531 
Q 828 903 1448 1529 
Q 2069 2156 2228 2338 
Q 2531 2678 2651 2914 
Q 2772 3150 2772 3378 
Q 2772 3750 2511 3984 
Q 2250 4219 1831 4219 
Q 1534 4219 1204 4116 
Q 875 4013 500 3803 
L 500 4441 
Q 881 4594 1212 4672 
Q 1544 4750 1819 4750 
Q 2544 4750 2975 4387 
Q 3406 4025 3406 3419 
Q 3406 3131 3298 2873 
Q 3191 2616 2906 2266 
Q 2828 2175 2409 1742 
Q 1991 1309 1228 531 
z
" transform="scale(0.015625)"/>
       </defs>
       <use xlink:href="#DejaVuSans-34"/>
       <use xlink:href="#DejaVuSans-5f" transform="translate(63.623047 0)"/>
       <use xlink:href="#DejaVuSans-43" transform="translate(113.623047 0)"/>
       <use xlink:href="#DejaVuSans-4c" transform="translate(183.447266 0)"/>
       <use xlink:href="#DejaVuSans-41" transform="translate(241.410156 0)"/>
       <use xlink:href="#DejaVuSans-5f" transform="translate(309.818359 0)"/>
       <use xlink:href="#DejaVuSans-36" transform="translate(359.818359 0)"/>
       <use xlink:href="#DejaVuSans-30" transform="translate(423.441406 0)"/>
       <use xlink:href="#DejaVuSans-32" transform="translate(487.064453 0)"/>
      </g>
     </g>
    </g>
    <g id="xtick_7">
     <g id="line2d_7">
      <g>
       <use xlink:href="#mcf0732c7d9" x="274.160983" y="223.806724" style="stroke: #000000; stroke-width: 0.8"/>
      </g>
     </g>
     <g id="text_7">
      <!-- 4_CLA_611 -->
      <g transform="translate(233.553167 274.995374) rotate(-45) scale(0.1 -0.1)">
       <use xlink:href="#DejaVuSans-34"/>
       <use xlink:href="#DejaVuSans-5f" transform="translate(63.623047 0)"/>
       <use xlink:href="#DejaVuSans-43" transform="translate(113.623047 0)"/>
       <use xlink:href="#DejaVuSans-4c" transform="translate(183.447266 0)"/>
       <use xlink:href="#DejaVuSans-41" transform="translate(241.410156 0)"/>
       <use xlink:href="#DejaVuSans-5f" transform="translate(309.818359 0)"/>
       <use xlink:href="#DejaVuSans-36" transform="translate(359.818359 0)"/>
       <use xlink:href="#DejaVuSans-31" transform="translate(423.441406 0)"/>
       <use xlink:href="#DejaVuSans-31" transform="translate(487.064453 0)"/>
      </g>
     </g>
    </g>
    <g id="xtick_8">
     <g id="line2d_8">
      <g>
       <use xlink:href="#mcf0732c7d9" x="303.925966" y="223.806724" style="stroke: #000000; stroke-width: 0.8"/>
      </g>
     </g>
     <g id="text_8">
      <!-- 4_CLA_612 -->
      <g transform="translate(263.31815 274.995374) rotate(-45) scale(0.1 -0.1)">
       <use xlink:href="#DejaVuSans-34"/>
       <use xlink:href="#DejaVuSans-5f" transform="translate(63.623047 0)"/>
       <use xlink:href="#DejaVuSans-43" transform="translate(113.623047 0)"/>
       <use xlink:href="#DejaVuSans-4c" transform="translate(183.447266 0)"/>
       <use xlink:href="#DejaVuSans-41" transform="translate(241.410156 0)"/>
       <use xlink:href="#DejaVuSans-5f" transform="translate(309.818359 0)"/>
       <use xlink:href="#DejaVuSans-36" transform="translate(359.818359 0)"/>
       <use xlink:href="#DejaVuSans-31" transform="translate(423.441406 0)"/>
       <use xlink:href="#DejaVuSans-32" transform="translate(487.064453 0)"/>
      </g>
     </g>
    </g>
    <g id="xtick_9">
     <g id="line2d_9">
      <g>
       <use xlink:href="#mcf0732c7d9" x="333.690949" y="223.806724" style="stroke: #000000; stroke-width: 0.8"/>
      </g>
     </g>
     <g id="text_9">
      <!-- 4_CLA_603 -->
      <g transform="translate(293.083133 274.995374) rotate(-45) scale(0.1 -0.1)">
       <defs>
        <path id="DejaVuSans-33" d="M 2597 2516 
Q 3050 2419 3304 2112 
Q 3559 1806 3559 1356 
Q 3559 666 3084 287 
Q 2609 -91 1734 -91 
Q 1441 -91 1130 -33 
Q 819 25 488 141 
L 488 750 
Q 750 597 1062 519 
Q 1375 441 1716 441 
Q 2309 441 2620 675 
Q 2931 909 2931 1356 
Q 2931 1769 2642 2001 
Q 2353 2234 1838 2234 
L 1294 2234 
L 1294 2753 
L 1863 2753 
Q 2328 2753 2575 2939 
Q 2822 3125 2822 3475 
Q 2822 3834 2567 4026 
Q 2313 4219 1838 4219 
Q 1578 4219 1281 4162 
Q 984 4106 628 3988 
L 628 4550 
Q 988 4650 1302 4700 
Q 1616 4750 1894 4750 
Q 2613 4750 3031 4423 
Q 3450 4097 3450 3541 
Q 3450 3153 3228 2886 
Q 3006 2619 2597 2516 
z
" transform="scale(0.015625)"/>
       </defs>
       <use xlink:href="#DejaVuSans-34"/>
       <use xlink:href="#DejaVuSans-5f" transform="translate(63.623047 0)"/>
       <use xlink:href="#DejaVuSans-43" transform="translate(113.623047 0)"/>
       <use xlink:href="#DejaVuSans-4c" transform="translate(183.447266 0)"/>
       <use xlink:href="#DejaVuSans-41" transform="translate(241.410156 0)"/>
       <use xlink:href="#DejaVuSans-5f" transform="translate(309.818359 0)"/>
       <use xlink:href="#DejaVuSans-36" transform="translate(359.818359 0)"/>
       <use xlink:href="#DejaVuSans-30" transform="translate(423.441406 0)"/>
       <use xlink:href="#DejaVuSans-33" transform="translate(487.064453 0)"/>
      </g>
     </g>
    </g>
    <g id="xtick_10">
     <g id="line2d_10">
      <g>
       <use xlink:href="#mcf0732c7d9" x="363.455933" y="223.806724" style="stroke: #000000; stroke-width: 0.8"/>
      </g>
     </g>
     <g id="text_10">
      <!-- 4_CLA_604 -->
      <g transform="translate(322.848116 274.995374) rotate(-45) scale(0.1 -0.1)">
       <use xlink:href="#DejaVuSans-34"/>
       <use xlink:href="#DejaVuSans-5f" transform="translate(63.623047 0)"/>
       <use xlink:href="#DejaVuSans-43" transform="translate(113.623047 0)"/>
       <use xlink:href="#DejaVuSans-4c" transform="translate(183.447266 0)"/>
       <use xlink:href="#DejaVuSans-41" transform="translate(241.410156 0)"/>
       <use xlink:href="#DejaVuSans-5f" transform="translate(309.818359 0)"/>
       <use xlink:href="#DejaVuSans-36" transform="translate(359.818359 0)"/>
       <use xlink:href="#DejaVuSans-30" transform="translate(423.441406 0)"/>
       <use xlink:href="#DejaVuSans-34" transform="translate(487.064453 0)"/>
      </g>
     </g>
    </g>
    <g id="xtick_11">
     <g id="line2d_11">
      <g>
       <use xlink:href="#mcf0732c7d9" x="393.220916" y="223.806724" style="stroke: #000000; stroke-width: 0.8"/>
      </g>
     </g>
     <g id="text_11">
      <!-- 4_CLA_610 -->
      <g transform="translate(352.613099 274.995374) rotate(-45) scale(0.1 -0.1)">
       <use xlink:href="#DejaVuSans-34"/>
       <use xlink:href="#DejaVuSans-5f" transform="translate(63.623047 0)"/>
       <use xlink:href="#DejaVuSans-43" transform="translate(113.623047 0)"/>
       <use xlink:href="#DejaVuSans-4c" transform="translate(183.447266 0)"/>
       <use xlink:href="#DejaVuSans-41" transform="translate(241.410156 0)"/>
       <use xlink:href="#DejaVuSans-5f" transform="translate(309.818359 0)"/>
       <use xlink:href="#DejaVuSans-36" transform="translate(359.818359 0)"/>
       <use xlink:href="#DejaVuSans-31" transform="translate(423.441406 0)"/>
       <use xlink:href="#DejaVuSans-30" transform="translate(487.064453 0)"/>
      </g>
     </g>
    </g>
   </g>
   <g id="matplotlib.axis_2">
    <g id="ytick_1">
     <g id="line2d_12">
      <defs>
       <path id="mb066d6bdf2" d="M 0 0 
L -3.5 0 
" style="stroke: #000000; stroke-width: 0.8"/>
      </defs>
      <g>
       <use xlink:href="#mb066d6bdf2" x="67.592" y="223.806724" style="stroke: #000000; stroke-width: 0.8"/>
      </g>
     </g>
     <g id="text_12">
      <!-- 0 -->
      <g transform="translate(54.2295 227.605943) scale(0.1 -0.1)">
       <use xlink:href="#DejaVuSans-30"/>
      </g>
     </g>
    </g>
    <g id="ytick_2">
     <g id="line2d_13">
      <g>
       <use xlink:href="#mb066d6bdf2" x="67.592" y="200.192661" style="stroke: #000000; stroke-width: 0.8"/>
      </g>
     </g>
     <g id="text_13">
      <!-- 2000 -->
      <g transform="translate(35.142 203.99188) scale(0.1 -0.1)">
       <use xlink:href="#DejaVuSans-32"/>
       <use xlink:href="#DejaVuSans-30" transform="translate(63.623047 0)"/>
       <use xlink:href="#DejaVuSans-30" transform="translate(127.246094 0)"/>
       <use xlink:href="#DejaVuSans-30" transform="translate(190.869141 0)"/>
      </g>
     </g>
    </g>
    <g id="ytick_3">
     <g id="line2d_14">
      <g>
       <use xlink:href="#mb066d6bdf2" x="67.592" y="176.578598" style="stroke: #000000; stroke-width: 0.8"/>
      </g>
     </g>
     <g id="text_14">
      <!-- 4000 -->
      <g transform="translate(35.142 180.377816) scale(0.1 -0.1)">
       <use xlink:href="#DejaVuSans-34"/>
       <use xlink:href="#DejaVuSans-30" transform="translate(63.623047 0)"/>
       <use xlink:href="#DejaVuSans-30" transform="translate(127.246094 0)"/>
       <use xlink:href="#DejaVuSans-30" transform="translate(190.869141 0)"/>
      </g>
     </g>
    </g>
    <g id="ytick_4">
     <g id="line2d_15">
      <g>
       <use xlink:href="#mb066d6bdf2" x="67.592" y="152.964534" style="stroke: #000000; stroke-width: 0.8"/>
      </g>
     </g>
     <g id="text_15">
      <!-- 6000 -->
      <g transform="translate(35.142 156.763753) scale(0.1 -0.1)">
       <use xlink:href="#DejaVuSans-36"/>
       <use xlink:href="#DejaVuSans-30" transform="translate(63.623047 0)"/>
       <use xlink:href="#DejaVuSans-30" transform="translate(127.246094 0)"/>
       <use xlink:href="#DejaVuSans-30" transform="translate(190.869141 0)"/>
      </g>
     </g>
    </g>
    <g id="ytick_5">
     <g id="line2d_16">
      <g>
       <use xlink:href="#mb066d6bdf2" x="67.592" y="129.350471" style="stroke: #000000; stroke-width: 0.8"/>
      </g>
     </g>
     <g id="text_16">
      <!-- 8000 -->
      <g transform="translate(35.142 133.14969) scale(0.1 -0.1)">
       <use xlink:href="#DejaVuSans-38"/>
       <use xlink:href="#DejaVuSans-30" transform="translate(63.623047 0)"/>
       <use xlink:href="#DejaVuSans-30" transform="translate(127.246094 0)"/>
       <use xlink:href="#DejaVuSans-30" transform="translate(190.869141 0)"/>
      </g>
     </g>
    </g>
    <g id="ytick_6">
     <g id="line2d_17">
      <g>
       <use xlink:href="#mb066d6bdf2" x="67.592" y="105.736408" style="stroke: #000000; stroke-width: 0.8"/>
      </g>
     </g>
     <g id="text_17">
      <!-- 10000 -->
      <g transform="translate(28.7795 109.535627) scale(0.1 -0.1)">
       <use xlink:href="#DejaVuSans-31"/>
       <use xlink:href="#DejaVuSans-30" transform="translate(63.623047 0)"/>
       <use xlink:href="#DejaVuSans-30" transform="translate(127.246094 0)"/>
       <use xlink:href="#DejaVuSans-30" transform="translate(190.869141 0)"/>
       <use xlink:href="#DejaVuSans-30" transform="translate(254.492188 0)"/>
      </g>
     </g>
    </g>
    <g id="ytick_7">
     <g id="line2d_18">
      <g>
       <use xlink:href="#mb066d6bdf2" x="67.592" y="82.122345" style="stroke: #000000; stroke-width: 0.8"/>
      </g>
     </g>
     <g id="text_18">
      <!-- 12000 -->
      <g transform="translate(28.7795 85.921563) scale(0.1 -0.1)">
       <use xlink:href="#DejaVuSans-31"/>
       <use xlink:href="#DejaVuSans-32" transform="translate(63.623047 0)"/>
       <use xlink:href="#DejaVuSans-30" transform="translate(127.246094 0)"/>
       <use xlink:href="#DejaVuSans-30" transform="translate(190.869141 0)"/>
       <use xlink:href="#DejaVuSans-30" transform="translate(254.492188 0)"/>
      </g>
     </g>
    </g>
    <g id="ytick_8">
     <g id="line2d_19">
      <g>
       <use xlink:href="#mb066d6bdf2" x="67.592" y="58.508281" style="stroke: #000000; stroke-width: 0.8"/>
      </g>
     </g>
     <g id="text_19">
      <!-- 14000 -->
      <g transform="translate(28.7795 62.3075) scale(0.1 -0.1)">
       <use xlink:href="#DejaVuSans-31"/>
       <use xlink:href="#DejaVuSans-34" transform="translate(63.623047 0)"/>
       <use xlink:href="#DejaVuSans-30" transform="translate(127.246094 0)"/>
       <use xlink:href="#DejaVuSans-30" transform="translate(190.869141 0)"/>
       <use xlink:href="#DejaVuSans-30" transform="translate(254.492188 0)"/>
      </g>
     </g>
    </g>
    <g id="ytick_9">
     <g id="line2d_20">
      <g>
       <use xlink:href="#mb066d6bdf2" x="67.592" y="34.894218" style="stroke: #000000; stroke-width: 0.8"/>
      </g>
     </g>
     <g id="text_20">
      <!-- 16000 -->
      <g transform="translate(28.7795 38.693437) scale(0.1 -0.1)">
       <use xlink:href="#DejaVuSans-31"/>
       <use xlink:href="#DejaVuSans-36" transform="translate(63.623047 0)"/>
       <use xlink:href="#DejaVuSans-30" transform="translate(127.246094 0)"/>
       <use xlink:href="#DejaVuSans-30" transform="translate(190.869141 0)"/>
       <use xlink:href="#DejaVuSans-30" transform="translate(254.492188 0)"/>
      </g>
     </g>
    </g>
    <g id="text_21">
     <!-- Shift (cm$^{-1}$) -->
     <g transform="translate(22.699812 155.293362) rotate(-90) scale(0.1 -0.1)">
      <defs>
       <path id="DejaVuSans-53" d="M 3425 4513 
L 3425 3897 
Q 3066 4069 2747 4153 
Q 2428 4238 2131 4238 
Q 1616 4238 1336 4038 
Q 1056 3838 1056 3469 
Q 1056 3159 1242 3001 
Q 1428 2844 1947 2747 
L 2328 2669 
Q 3034 2534 3370 2195 
Q 3706 1856 3706 1288 
Q 3706 609 3251 259 
Q 2797 -91 1919 -91 
Q 1588 -91 1214 -16 
Q 841 59 441 206 
L 441 856 
Q 825 641 1194 531 
Q 1563 422 1919 422 
Q 2459 422 2753 634 
Q 3047 847 3047 1241 
Q 3047 1584 2836 1778 
Q 2625 1972 2144 2069 
L 1759 2144 
Q 1053 2284 737 2584 
Q 422 2884 422 3419 
Q 422 4038 858 4394 
Q 1294 4750 2059 4750 
Q 2388 4750 2728 4690 
Q 3069 4631 3425 4513 
z
" transform="scale(0.015625)"/>
       <path id="DejaVuSans-68" d="M 3513 2113 
L 3513 0 
L 2938 0 
L 2938 2094 
Q 2938 2591 2744 2837 
Q 2550 3084 2163 3084 
Q 1697 3084 1428 2787 
Q 1159 2491 1159 1978 
L 1159 0 
L 581 0 
L 581 4863 
L 1159 4863 
L 1159 2956 
Q 1366 3272 1645 3428 
Q 1925 3584 2291 3584 
Q 2894 3584 3203 3211 
Q 3513 2838 3513 2113 
z
" transform="scale(0.015625)"/>
       <path id="DejaVuSans-69" d="M 603 3500 
L 1178 3500 
L 1178 0 
L 603 0 
L 603 3500 
z
M 603 4863 
L 1178 4863 
L 1178 4134 
L 603 4134 
L 603 4863 
z
" transform="scale(0.015625)"/>
       <path id="DejaVuSans-66" d="M 2375 4863 
L 2375 4384 
L 1825 4384 
Q 1516 4384 1395 4259 
Q 1275 4134 1275 3809 
L 1275 3500 
L 2222 3500 
L 2222 3053 
L 1275 3053 
L 1275 0 
L 697 0 
L 697 3053 
L 147 3053 
L 147 3500 
L 697 3500 
L 697 3744 
Q 697 4328 969 4595 
Q 1241 4863 1831 4863 
L 2375 4863 
z
" transform="scale(0.015625)"/>
       <path id="DejaVuSans-74" d="M 1172 4494 
L 1172 3500 
L 2356 3500 
L 2356 3053 
L 1172 3053 
L 1172 1153 
Q 1172 725 1289 603 
Q 1406 481 1766 481 
L 2356 481 
L 2356 0 
L 1766 0 
Q 1100 0 847 248 
Q 594 497 594 1153 
L 594 3053 
L 172 3053 
L 172 3500 
L 594 3500 
L 594 4494 
L 1172 4494 
z
" transform="scale(0.015625)"/>
       <path id="DejaVuSans-20" transform="scale(0.015625)"/>
       <path id="DejaVuSans-28" d="M 1984 4856 
Q 1566 4138 1362 3434 
Q 1159 2731 1159 2009 
Q 1159 1288 1364 580 
Q 1569 -128 1984 -844 
L 1484 -844 
Q 1016 -109 783 600 
Q 550 1309 550 2009 
Q 550 2706 781 3412 
Q 1013 4119 1484 4856 
L 1984 4856 
z
" transform="scale(0.015625)"/>
       <path id="DejaVuSans-63" d="M 3122 3366 
L 3122 2828 
Q 2878 2963 2633 3030 
Q 2388 3097 2138 3097 
Q 1578 3097 1268 2742 
Q 959 2388 959 1747 
Q 959 1106 1268 751 
Q 1578 397 2138 397 
Q 2388 397 2633 464 
Q 2878 531 3122 666 
L 3122 134 
Q 2881 22 2623 -34 
Q 2366 -91 2075 -91 
Q 1284 -91 818 406 
Q 353 903 353 1747 
Q 353 2603 823 3093 
Q 1294 3584 2113 3584 
Q 2378 3584 2631 3529 
Q 2884 3475 3122 3366 
z
" transform="scale(0.015625)"/>
       <path id="DejaVuSans-6d" d="M 3328 2828 
Q 3544 3216 3844 3400 
Q 4144 3584 4550 3584 
Q 5097 3584 5394 3201 
Q 5691 2819 5691 2113 
L 5691 0 
L 5113 0 
L 5113 2094 
Q 5113 2597 4934 2840 
Q 4756 3084 4391 3084 
Q 3944 3084 3684 2787 
Q 3425 2491 3425 1978 
L 3425 0 
L 2847 0 
L 2847 2094 
Q 2847 2600 2669 2842 
Q 2491 3084 2119 3084 
Q 1678 3084 1418 2786 
Q 1159 2488 1159 1978 
L 1159 0 
L 581 0 
L 581 3500 
L 1159 3500 
L 1159 2956 
Q 1356 3278 1631 3431 
Q 1906 3584 2284 3584 
Q 2666 3584 2933 3390 
Q 3200 3197 3328 2828 
z
" transform="scale(0.015625)"/>
       <path id="DejaVuSans-2212" d="M 678 2272 
L 4684 2272 
L 4684 1741 
L 678 1741 
L 678 2272 
z
" transform="scale(0.015625)"/>
       <path id="DejaVuSans-29" d="M 513 4856 
L 1013 4856 
Q 1481 4119 1714 3412 
Q 1947 2706 1947 2009 
Q 1947 1309 1714 600 
Q 1481 -109 1013 -844 
L 513 -844 
Q 928 -128 1133 580 
Q 1338 1288 1338 2009 
Q 1338 2731 1133 3434 
Q 928 4138 513 4856 
z
" transform="scale(0.015625)"/>
      </defs>
      <use xlink:href="#DejaVuSans-53" transform="translate(0 0.684375)"/>
      <use xlink:href="#DejaVuSans-68" transform="translate(63.476562 0.684375)"/>
      <use xlink:href="#DejaVuSans-69" transform="translate(126.855469 0.684375)"/>
      <use xlink:href="#DejaVuSans-66" transform="translate(154.638672 0.684375)"/>
      <use xlink:href="#DejaVuSans-74" transform="translate(189.84375 0.684375)"/>
      <use xlink:href="#DejaVuSans-20" transform="translate(229.052734 0.684375)"/>
      <use xlink:href="#DejaVuSans-28" transform="translate(260.839844 0.684375)"/>
      <use xlink:href="#DejaVuSans-63" transform="translate(299.853516 0.684375)"/>
      <use xlink:href="#DejaVuSans-6d" transform="translate(354.833984 0.684375)"/>
      <use xlink:href="#DejaVuSans-2212" transform="translate(453.203125 38.965625) scale(0.7)"/>
      <use xlink:href="#DejaVuSans-31" transform="translate(511.855469 38.965625) scale(0.7)"/>
      <use xlink:href="#DejaVuSans-29" transform="translate(559.125977 0.684375)"/>
     </g>
    </g>
   </g>
   <g id="patch_14">
    <path d="M 67.592 223.806724 
L 67.592 26.88 
" style="fill: none; stroke: #000000; stroke-width: 0.8; stroke-linejoin: miter; stroke-linecap: square"/>
   </g>
   <g id="patch_15">
    <path d="M 421.2 223.806724 
L 421.2 26.88 
" style="fill: none; stroke: #000000; stroke-width: 0.8; stroke-linejoin: miter; stroke-linecap: square"/>
   </g>
   <g id="patch_16">
    <path d="M 67.592 223.806724 
L 421.2 223.806724 
" style="fill: none; stroke: #000000; stroke-width: 0.8; stroke-linejoin: miter; stroke-linecap: square"/>
   </g>
   <g id="patch_17">
    <path d="M 67.592 26.88 
L 421.2 26.88 
" style="fill: none; stroke: #000000; stroke-width: 0.8; stroke-linejoin: miter; stroke-linecap: square"/>
   </g>
   <g id="text_22">
    <!-- Site Energy Shift per Pigment -->
    <g transform="translate(155.986 20.88) scale(0.12 -0.12)">
     <defs>
      <path id="DejaVuSans-65" d="M 3597 1894 
L 3597 1613 
L 953 1613 
Q 991 1019 1311 708 
Q 1631 397 2203 397 
Q 2534 397 2845 478 
Q 3156 559 3463 722 
L 3463 178 
Q 3153 47 2828 -22 
Q 2503 -91 2169 -91 
Q 1331 -91 842 396 
Q 353 884 353 1716 
Q 353 2575 817 3079 
Q 1281 3584 2069 3584 
Q 2775 3584 3186 3129 
Q 3597 2675 3597 1894 
z
M 3022 2063 
Q 3016 2534 2758 2815 
Q 2500 3097 2075 3097 
Q 1594 3097 1305 2825 
Q 1016 2553 972 2059 
L 3022 2063 
z
" transform="scale(0.015625)"/>
      <path id="DejaVuSans-45" d="M 628 4666 
L 3578 4666 
L 3578 4134 
L 1259 4134 
L 1259 2753 
L 3481 2753 
L 3481 2222 
L 1259 2222 
L 1259 531 
L 3634 531 
L 3634 0 
L 628 0 
L 628 4666 
z
" transform="scale(0.015625)"/>
      <path id="DejaVuSans-6e" d="M 3513 2113 
L 3513 0 
L 2938 0 
L 2938 2094 
Q 2938 2591 2744 2837 
Q 2550 3084 2163 3084 
Q 1697 3084 1428 2787 
Q 1159 2491 1159 1978 
L 1159 0 
L 581 0 
L 581 3500 
L 1159 3500 
L 1159 2956 
Q 1366 3272 1645 3428 
Q 1925 3584 2291 3584 
Q 2894 3584 3203 3211 
Q 3513 2838 3513 2113 
z
" transform="scale(0.015625)"/>
      <path id="DejaVuSans-72" d="M 2631 2963 
Q 2534 3019 2420 3045 
Q 2306 3072 2169 3072 
Q 1681 3072 1420 2755 
Q 1159 2438 1159 1844 
L 1159 0 
L 581 0 
L 581 3500 
L 1159 3500 
L 1159 2956 
Q 1341 3275 1631 3429 
Q 1922 3584 2338 3584 
Q 2397 3584 2469 3576 
Q 2541 3569 2628 3553 
L 2631 2963 
z
" transform="scale(0.015625)"/>
      <path id="DejaVuSans-67" d="M 2906 1791 
Q 2906 2416 2648 2759 
Q 2391 3103 1925 3103 
Q 1463 3103 1205 2759 
Q 947 2416 947 1791 
Q 947 1169 1205 825 
Q 1463 481 1925 481 
Q 2391 481 2648 825 
Q 2906 1169 2906 1791 
z
M 3481 434 
Q 3481 -459 3084 -895 
Q 2688 -1331 1869 -1331 
Q 1566 -1331 1297 -1286 
Q 1028 -1241 775 -1147 
L 775 -588 
Q 1028 -725 1275 -790 
Q 1522 -856 1778 -856 
Q 2344 -856 2625 -561 
Q 2906 -266 2906 331 
L 2906 616 
Q 2728 306 2450 153 
Q 2172 0 1784 0 
Q 1141 0 747 490 
Q 353 981 353 1791 
Q 353 2603 747 3093 
Q 1141 3584 1784 3584 
Q 2172 3584 2450 3431 
Q 2728 3278 2906 2969 
L 2906 3500 
L 3481 3500 
L 3481 434 
z
" transform="scale(0.015625)"/>
      <path id="DejaVuSans-79" d="M 2059 -325 
Q 1816 -950 1584 -1140 
Q 1353 -1331 966 -1331 
L 506 -1331 
L 506 -850 
L 844 -850 
Q 1081 -850 1212 -737 
Q 1344 -625 1503 -206 
L 1606 56 
L 191 3500 
L 800 3500 
L 1894 763 
L 2988 3500 
L 3597 3500 
L 2059 -325 
z
" transform="scale(0.015625)"/>
      <path id="DejaVuSans-70" d="M 1159 525 
L 1159 -1331 
L 581 -1331 
L 581 3500 
L 1159 3500 
L 1159 2969 
Q 1341 3281 1617 3432 
Q 1894 3584 2278 3584 
Q 2916 3584 3314 3078 
Q 3713 2572 3713 1747 
Q 3713 922 3314 415 
Q 2916 -91 2278 -91 
Q 1894 -91 1617 61 
Q 1341 213 1159 525 
z
M 3116 1747 
Q 3116 2381 2855 2742 
Q 2594 3103 2138 3103 
Q 1681 3103 1420 2742 
Q 1159 2381 1159 1747 
Q 1159 1113 1420 752 
Q 1681 391 2138 391 
Q 2594 391 2855 752 
Q 3116 1113 3116 1747 
z
" transform="scale(0.015625)"/>
      <path id="DejaVuSans-50" d="M 1259 4147 
L 1259 2394 
L 2053 2394 
Q 2494 2394 2734 2622 
Q 2975 2850 2975 3272 
Q 2975 3691 2734 3919 
Q 2494 4147 2053 4147 
L 1259 4147 
z
M 628 4666 
L 2053 4666 
Q 2838 4666 3239 4311 
Q 3641 3956 3641 3272 
Q 3641 2581 3239 2228 
Q 2838 1875 2053 1875 
L 1259 1875 
L 1259 0 
L 628 0 
L 628 4666 
z
" transform="scale(0.015625)"/>
     </defs>
     <use xlink:href="#DejaVuSans-53"/>
     <use xlink:href="#DejaVuSans-69" transform="translate(63.476562 0)"/>
     <use xlink:href="#DejaVuSans-74" transform="translate(91.259766 0)"/>
     <use xlink:href="#DejaVuSans-65" transform="translate(130.46875 0)"/>
     <use xlink:href="#DejaVuSans-20" transform="translate(191.992188 0)"/>
     <use xlink:href="#DejaVuSans-45" transform="translate(223.779297 0)"/>
     <use xlink:href="#DejaVuSans-6e" transform="translate(286.962891 0)"/>
     <use xlink:href="#DejaVuSans-65" transform="translate(350.341797 0)"/>
     <use xlink:href="#DejaVuSans-72" transform="translate(411.865234 0)"/>
     <use xlink:href="#DejaVuSans-67" transform="translate(451.228516 0)"/>
     <use xlink:href="#DejaVuSans-79" transform="translate(514.705078 0)"/>
     <use xlink:href="#DejaVuSans-20" transform="translate(573.884766 0)"/>
     <use xlink:href="#DejaVuSans-53" transform="translate(605.671875 0)"/>
     <use xlink:href="#DejaVuSans-68" transform="translate(669.148438 0)"/>
     <use xlink:href="#DejaVuSans-69" transform="translate(732.527344 0)"/>
     <use xlink:href="#DejaVuSans-66" transform="translate(760.310547 0)"/>
     <use xlink:href="#DejaVuSans-74" transform="translate(793.765625 0)"/>
     <use xlink:href="#DejaVuSans-20" transform="translate(832.974609 0)"/>
     <use xlink:href="#DejaVuSans-70" transform="translate(864.761719 0)"/>
     <use xlink:href="#DejaVuSans-65" transform="translate(928.238281 0)"/>
     <use xlink:href="#DejaVuSans-72" transform="translate(989.761719 0)"/>
     <use xlink:href="#DejaVuSans-20" transform="translate(1030.875 0)"/>
     <use xlink:href="#DejaVuSans-50" transform="translate(1062.662109 0)"/>
     <use xlink:href="#DejaVuSans-69" transform="translate(1120.714844 0)"/>
     <use xlink:href="#DejaVuSans-67" transform="translate(1148.498047 0)"/>
     <use xlink:href="#DejaVuSans-6d" transform="translate(1211.974609 0)"/>
     <use xlink:href="#DejaVuSans-65" transform="translate(1309.386719 0)"/>
     <use xlink:href="#DejaVuSans-6e" transform="translate(1370.910156 0)"/>
     <use xlink:href="#DejaVuSans-74" transform="translate(1434.289062 0)"/>
    </g>
   </g>
  </g>
 </g>
 <defs>
  <clipPath id="p47e4899e32">
   <rect x="67.592" y="26.88" width="353.608" height="196.926724"/>
  </clipPath>
 </defs>
</svg>
